<svg width="22" height="24" viewBox="0 0 22 24" fill="none" xmlns="http://www.w3.org/2000/svg">
<path fill-rule="evenodd" clip-rule="evenodd" d="M15.3545 0C15.8003 0 16.1622 0.361845 16.1622 0.807689L16.1627 1.72071C17.7351 1.82852 19.041 2.36712 19.9653 3.29333C20.9744 4.30671 21.5053 5.76378 21.5 7.51162V17.3364C21.5 20.9246 19.2212 23.1539 15.5542 23.1539H6.44567C2.77876 23.1539 0.5 20.8934 0.5 17.2545V7.50946C0.5 4.12491 2.53221 1.95239 5.84656 1.72108L5.84723 0.807689C5.84723 0.361845 6.20907 0 6.65491 0C7.10076 0 7.4626 0.361845 7.4626 0.807689L7.46228 1.70046H14.5463L14.5468 0.807689C14.5468 0.361845 14.9086 0 15.3545 0ZM19.8845 9.58889H2.11538V17.2545C2.11538 20.0179 3.65322 21.5385 6.44567 21.5385H15.5542C18.3467 21.5385 19.8846 20.0459 19.8846 17.3364L19.8845 9.58889ZM15.7935 16.3652C16.2394 16.3652 16.6012 16.727 16.6012 17.1729C16.6012 17.6187 16.2394 17.9806 15.7935 17.9806C15.3477 17.9806 14.9815 17.6187 14.9815 17.1729C14.9815 16.727 15.338 16.3652 15.7838 16.3652H15.7935ZM11.0147 16.3652C11.4606 16.3652 11.8224 16.727 11.8224 17.1729C11.8224 17.6187 11.4606 17.9806 11.0147 17.9806C10.5689 17.9806 10.2027 17.6187 10.2027 17.1729C10.2027 16.727 10.5592 16.3652 11.005 16.3652H11.0147ZM6.22587 16.3652C6.67171 16.3652 7.03356 16.727 7.03356 17.1729C7.03356 17.6187 6.67171 17.9806 6.22587 17.9806C5.78003 17.9806 5.4128 17.6187 5.4128 17.1729C5.4128 16.727 5.77033 16.3652 6.21618 16.3652H6.22587ZM15.7935 12.1795C16.2394 12.1795 16.6012 12.5414 16.6012 12.9872C16.6012 13.4331 16.2394 13.7949 15.7935 13.7949C15.3477 13.7949 14.9815 13.4331 14.9815 12.9872C14.9815 12.5414 15.338 12.1795 15.7838 12.1795H15.7935ZM11.0147 12.1795C11.4606 12.1795 11.8224 12.5414 11.8224 12.9872C11.8224 13.4331 11.4606 13.7949 11.0147 13.7949C10.5689 13.7949 10.2027 13.4331 10.2027 12.9872C10.2027 12.5414 10.5592 12.1795 11.005 12.1795H11.0147ZM6.22587 12.1795C6.67171 12.1795 7.03356 12.5414 7.03356 12.9872C7.03356 13.4331 6.67171 13.7949 6.22587 13.7949C5.78003 13.7949 5.4128 13.4331 5.4128 12.9872C5.4128 12.5414 5.77033 12.1795 6.21618 12.1795H6.22587ZM14.5463 3.31583H7.46228L7.4626 4.35183C7.4626 4.79767 7.10076 5.15952 6.65491 5.15952C6.20907 5.15952 5.84723 4.79767 5.84723 4.35183L5.84665 3.34028C3.43411 3.54295 2.11538 5.00536 2.11538 7.50946V7.97351H19.8845L19.8846 7.50946C19.8888 6.17947 19.5313 5.14563 18.8216 4.43486C18.1986 3.81004 17.2879 3.43688 16.1631 3.3408L16.1622 4.35183C16.1622 4.79767 15.8003 5.15952 15.3545 5.15952C14.9086 5.15952 14.5468 4.79767 14.5468 4.35183L14.5463 3.31583Z" fill="black"/>
</svg>
