<svg width="23" height="22" viewBox="0 0 23 22" fill="none" xmlns="http://www.w3.org/2000/svg">
<path fill-rule="evenodd" clip-rule="evenodd" d="M16.1951 0.166668C19.8665 0.166668 22.3333 2.74283 22.3333 6.57567V15.4243C22.3333 19.2572 19.8665 21.8333 16.194 21.8333H6.80371C3.13229 21.8333 0.666626 19.2572 0.666626 15.4243V6.57567C0.666626 2.74283 3.13229 0.166668 6.80371 0.166668H16.1951ZM16.1951 1.79167H6.80371C4.06288 1.79167 2.29163 3.66908 2.29163 6.57567V15.4243C2.29163 18.3309 4.06288 20.2083 6.80371 20.2083H16.194C18.936 20.2083 20.7083 18.3309 20.7083 15.4243V6.57567C20.7083 3.66908 18.937 1.79167 16.1951 1.79167ZM11.499 5.45723C11.9475 5.45723 12.3115 5.82123 12.3115 6.26973V10.5337L15.5896 12.487C15.9742 12.7177 16.101 13.2161 15.8713 13.6017C15.7186 13.8563 15.4488 13.9982 15.1726 13.9982C15.0306 13.9982 14.8876 13.9614 14.7566 13.8845L11.083 11.6929C10.8382 11.5456 10.6865 11.2802 10.6865 10.9952V6.26973C10.6865 5.82123 11.0505 5.45723 11.499 5.45723Z" fill="black"/>
</svg>
