<svg width="31" height="31" viewBox="0 0 31 31" fill="none" xmlns="http://www.w3.org/2000/svg">
<g clip-path="url(#clip0_8_1617)">
<path d="M15.5 31C24.0604 31 31 24.0604 31 15.5C31 6.93959 24.0604 0 15.5 0C6.93959 0 0 6.93959 0 15.5C0 24.0604 6.93959 31 15.5 31Z" fill="#2F80ED"/>
<path d="M11.7542 20.15C7.62092 20.15 5.16675 17.05 5.16675 14.0792V7.49167C5.16675 6.97501 5.55425 6.58751 6.07091 6.58751H8.00841V6.07084C8.00841 5.55417 8.39592 5.16667 8.91258 5.16667C9.42925 5.16667 9.81675 5.55417 9.81675 6.07084V6.58751H13.5626V6.07084C13.5626 5.55417 13.9501 5.16667 14.4667 5.16667C15.1126 5.16667 15.5001 5.55417 15.5001 6.07084V6.58751H17.4376C17.9542 6.58751 18.3417 6.97501 18.3417 7.49167V14.0792C18.3417 17.05 15.8876 20.15 11.7542 20.15ZM7.10425 8.39584V14.0792C7.10425 15.6292 8.39592 18.3417 11.7542 18.3417C15.1126 18.3417 16.4042 15.7583 16.4042 14.0792V8.39584H15.5001V8.91251C15.5001 9.42917 15.1126 9.81667 14.5959 9.81667C14.0792 9.81667 13.6917 9.42917 13.6917 8.91251V8.39584H9.81675V8.91251C9.81675 9.42917 9.42925 9.81667 8.91258 9.81667C8.39592 9.81667 8.00841 9.42917 8.00841 8.91251V8.39584H7.10425Z" fill="white"/>
<path d="M22.9918 16.0167C21.4418 16.0167 20.1501 14.8542 20.1501 13.175C20.1501 11.4958 21.4418 10.3333 22.9918 10.3333C24.5418 10.3333 25.8335 11.4958 25.8335 13.175C25.8335 14.8542 24.671 16.0167 22.9918 16.0167ZM22.9918 12.2708C22.4751 12.2708 22.0876 12.6583 22.0876 13.175C22.0876 13.6917 22.4751 14.0792 22.9918 14.0792C23.5085 14.0792 23.896 13.6917 23.896 13.175C23.896 12.6583 23.6376 12.2708 22.9918 12.2708Z" fill="white"/>
<path d="M17.4376 25.8333C13.8209 25.8333 10.8501 22.8625 10.8501 19.2458C10.8501 18.7292 11.2376 18.3417 11.7543 18.3417C12.2709 18.3417 12.6584 18.7292 12.6584 19.2458C12.6584 21.8292 14.7251 23.8958 17.3084 23.8958C19.8918 23.8958 21.9584 21.8292 21.9584 19.2458V14.9833C21.9584 14.4667 22.3459 14.0792 22.8626 14.0792C23.3793 14.0792 23.7668 14.4667 23.7668 14.9833V19.2458C23.8959 22.8625 21.0543 25.8333 17.4376 25.8333Z" fill="white"/>
</g>
<defs>
<clipPath id="clip0_8_1617">
<rect width="31" height="31" fill="white"/>
</clipPath>
</defs>
</svg>
