<svg width="199" height="47" viewBox="0 0 199 47" fill="none" xmlns="http://www.w3.org/2000/svg">
<path d="M95.6331 2.32399C97.1259 0.998315 99.3741 0.998315 100.867 2.32398C101.905 3.24611 103.352 3.55368 104.676 3.13361C106.579 2.52969 108.633 3.44414 109.457 5.26234C110.031 6.52707 111.227 7.39661 112.607 7.55121C114.591 7.77348 116.096 9.44425 116.109 11.4406C116.119 12.8293 116.859 14.1104 118.056 14.813C119.779 15.823 120.473 17.9612 119.674 19.7905C119.118 21.063 119.272 22.5342 120.081 23.6632C121.243 25.2864 121.008 27.5223 119.534 28.8683C118.508 29.8045 118.051 31.2115 118.33 32.5717C118.732 34.5273 117.608 36.4744 115.714 37.1043C114.396 37.5424 113.406 38.6418 113.108 39.9981C112.679 41.948 110.861 43.2695 108.874 43.0744C107.492 42.9387 106.14 43.5404 105.316 44.6583C104.132 46.2653 101.933 46.7328 100.197 45.7464C98.9897 45.0603 97.5103 45.0603 96.303 45.7464C94.5672 46.7328 92.3681 46.2653 91.1836 44.6583C90.3597 43.5404 89.0083 42.9387 87.6262 43.0744C85.6394 43.2695 83.8205 41.948 83.3921 39.9981C83.0941 38.6418 82.1042 37.5424 80.7864 37.1043C78.892 36.4744 77.7679 34.5273 78.1696 32.5717C78.449 31.2115 77.9919 29.8045 76.9663 28.8683C75.4918 27.5223 75.2568 25.2864 76.4192 23.6632C77.2277 22.5342 77.3824 21.063 76.8262 19.7905C76.0267 17.9612 76.7215 15.823 78.4435 14.813C79.6414 14.1104 80.3811 12.8293 80.3906 11.4406C80.4042 9.44425 81.9086 7.77348 83.8926 7.55121C85.2726 7.39661 86.4695 6.52707 87.043 5.26234C87.8674 3.44414 89.9213 2.52969 91.8242 3.13361C93.1478 3.55368 94.5948 3.24611 95.6331 2.32399Z" fill="#3E973E"/>
<path d="M106.801 21.3139L96.8437 30.5971C96.545 30.8756 96.1529 31.0158 95.7608 31.0158C95.3686 31.0158 94.9765 30.8756 94.6778 30.5971L89.6993 25.9555C89.1002 25.3972 89.1002 24.4945 89.6993 23.9361C90.2982 23.3775 91.2662 23.3775 91.8653 23.9361L95.7608 27.568L104.635 19.2946C105.234 18.736 106.202 18.736 106.801 19.2946C107.4 19.8529 107.4 20.7554 106.801 21.3139Z" fill="#FAFAFA"/>
<path d="M190.35 21.6521C194.15 20.905 197.35 22.6794 198.25 24.9206C197.45 24.9206 196.65 25.1074 196.05 25.3876C194.95 23.8934 191.85 22.9595 188.75 24.7339C189.15 23.6132 189.65 22.586 190.35 21.6521Z" fill="#ED1E79"/>
<path d="M187.836 38.2882L185.75 43.9385L188.775 44.9127L190.862 39.2624L187.836 38.2882Z" fill="#FCEE21"/>
<path d="M166.836 28.0157L164.75 33.6661L167.775 34.6403L169.862 28.9899L166.836 28.0157Z" fill="#7585D8"/>
<path d="M28.8364 28.0157L26.75 33.6661L29.7753 34.6403L31.8617 28.9899L28.8364 28.0157Z" fill="#E08755"/>
<path d="M153.15 15.7325C152.15 13.5847 149.65 12.3706 147.25 12.8376C147.05 11.9971 146.95 11.1566 146.75 10.3162C150.35 9.94262 153.75 11.9971 154.85 15.1722C154.35 15.359 153.75 15.5458 153.15 15.7325Z" fill="#009245"/>
<path d="M142.852 32.685C141.352 31.0975 141.552 29.043 142.452 28.0157C142.652 28.3893 142.952 28.7628 143.352 28.9496C142.852 29.8835 143.152 31.6578 144.952 32.5917C144.252 32.7784 143.552 32.7784 142.852 32.685Z" fill="#ED1E79"/>
<path d="M48.75 18.9645C48.25 22.2689 45.25 24.2803 42.75 24.2803C43.0833 23.562 43.0833 22.9873 43.0833 22.4126C45.0833 21.9816 47.0833 19.8265 46.25 16.8095C47.25 17.3841 48.0833 18.1025 48.75 18.9645Z" fill="#ED1E79"/>
<path d="M40.75 5.74682C40.5 7.39902 39 8.40472 37.75 8.40472C37.9167 8.04555 37.9167 7.75821 37.9167 7.47087C38.9167 7.25536 39.9167 6.17783 39.5 4.66929C40 4.95663 40.4167 5.31581 40.75 5.74682Z" fill="#ED1E79"/>
<path d="M28.5377 13.074L27.75 14.0399L28.9434 14.8887L29.7311 13.9228L28.5377 13.074Z" fill="#FBB03B"/>
<path d="M10.436 12.1401L7.75 15.1574L10.4108 17.2231L13.0969 14.2059L10.436 12.1401Z" fill="#C07ED8"/>
<path d="M172.436 4.66927L169.75 7.68655L172.411 9.75229L175.097 6.73501L172.436 4.66927Z" fill="#FBB03B"/>
<path d="M3.46152 36.4205L0.75 37.0659L1.5475 39.9877L4.25902 39.3422L3.46152 36.4205Z" fill="#FBB03B"/>
</svg>
