<svg width="26" height="26" viewBox="0 0 28 29" fill="none" xmlns="http://www.w3.org/2000/svg">
<path fill-rule="evenodd" clip-rule="evenodd" d="M19.2161 0.333333C19.7853 0.333333 20.2473 0.781333 20.2473 1.33333L20.2479 2.46375C22.2556 2.59722 23.923 3.26406 25.1031 4.4108C26.3915 5.66547 27.0694 7.46947 27.0625 9.63347V21.7975C27.0625 26.2401 24.153 29.0001 19.4711 29.0001H7.84137C3.1595 29.0001 0.25 26.2015 0.25 21.6961V9.6308C0.25 5.44039 2.8447 2.75059 7.07644 2.4642L7.07729 1.33333C7.07729 0.781333 7.53929 0.333333 8.10854 0.333333C8.67779 0.333333 9.13979 0.781333 9.13979 1.33333L9.13937 2.43867H18.1841L18.1848 1.33333C18.1848 0.781333 18.6468 0.333333 19.2161 0.333333ZM25 12.2053H2.3125V21.6961C2.3125 25.1175 4.276 27.0001 7.84137 27.0001H19.4711C23.0365 27.0001 25 25.1521 25 21.7975L25 12.2053ZM19.7766 20.5951C20.3459 20.5951 20.8079 21.0431 20.8079 21.5951C20.8079 22.1471 20.3459 22.5951 19.7766 22.5951C19.2074 22.5951 18.7399 22.1471 18.7399 21.5951C18.7399 21.0431 19.195 20.5951 19.7643 20.5951H19.7766ZM13.6751 20.5951C14.2443 20.5951 14.7063 21.0431 14.7063 21.5951C14.7063 22.1471 14.2443 22.5951 13.6751 22.5951C13.1058 22.5951 12.6383 22.1471 12.6383 21.5951C12.6383 21.0431 13.0935 20.5951 13.6627 20.5951H13.6751ZM7.56074 20.5951C8.12999 20.5951 8.59199 21.0431 8.59199 21.5951C8.59199 22.1471 8.12999 22.5951 7.56074 22.5951C6.99149 22.5951 6.52261 22.1471 6.52261 21.5951C6.52261 21.0431 6.97911 20.5951 7.54836 20.5951H7.56074ZM19.7766 15.4128C20.3459 15.4128 20.8079 15.8608 20.8079 16.4128C20.8079 16.9648 20.3459 17.4128 19.7766 17.4128C19.2074 17.4128 18.7399 16.9648 18.7399 16.4128C18.7399 15.8608 19.195 15.4128 19.7643 15.4128H19.7766ZM13.6751 15.4128C14.2443 15.4128 14.7063 15.8608 14.7063 16.4128C14.7063 16.9648 14.2443 17.4128 13.6751 17.4128C13.1058 17.4128 12.6383 16.9648 12.6383 16.4128C12.6383 15.8608 13.0935 15.4128 13.6627 15.4128H13.6751ZM7.56074 15.4128C8.12999 15.4128 8.59199 15.8608 8.59199 16.4128C8.59199 16.9648 8.12999 17.4128 7.56074 17.4128C6.99149 17.4128 6.52261 16.9648 6.52261 16.4128C6.52261 15.8608 6.97911 15.4128 7.54836 15.4128H7.56074ZM18.1841 4.43867H9.13937L9.13979 5.72133C9.13979 6.27333 8.67779 6.72133 8.10854 6.72133C7.53929 6.72133 7.07729 6.27333 7.07729 5.72133L7.07656 4.46894C3.99624 4.71986 2.3125 6.53047 2.3125 9.6308V10.2053H25L25 9.6308C25.0055 7.98413 24.549 6.70413 23.6429 5.82413C22.8475 5.05054 21.6847 4.58853 20.2485 4.46958L20.2473 5.72133C20.2473 6.27333 19.7853 6.72133 19.2161 6.72133C18.6468 6.72133 18.1848 6.27333 18.1848 5.72133L18.1841 4.43867Z" fill="#542EBF"/>
</svg>
